<?xml version="1.0" encoding="UTF-8" standalone="no"?>
<!DOCTYPE svg PUBLIC "-//W3C//DTD SVG 1.1//EN" "http://www.w3.org/Graphics/SVG/1.1/DTD/svg11.dtd">
<svg version="1.1" xmlns="http://www.w3.org/2000/svg" xmlns:xlink="http://www.w3.org/1999/xlink" preserveAspectRatio="xMidYMid meet" viewBox="0 0 750 473" width="749" height="472.37"><defs><path d="M-0.02 51.7C-0.02 88.45 -0.02 382.52 -0.02 419.27C-0.02 447.84 23.65 470.99 52.86 470.99C117.28 470.99 632.68 470.99 697.11 470.99C726.3 470.99 749.98 447.83 749.98 419.27C749.98 408.15 749.98 352.55 749.98 252.46C749.98 132 749.98 65.08 749.98 51.7C749.98 23.13 726.31 -0.01 697.11 -0.01C654.16 -0.01 439.41 -0.01 52.86 -0.01C17.61 15.42 -0.02 32.66 -0.02 51.7Z" id="ao3tqdAPq"></path><path d="M136.71 150.26L136.91 150.27L137.18 150.28L137.53 150.3L137.94 150.33L138.41 150.37L138.95 150.43L139.54 150.51L140.18 150.6L140.87 150.72L141.61 150.86L142.38 151.02L143.19 151.21L144.04 151.43L144.92 151.69L145.82 151.98L146.74 152.3L147.69 152.66L148.64 153.07L149.61 153.51L150.59 154L151.57 154.54L152.55 155.12L153.53 155.76L154.5 156.45L155.46 157.2L156.41 158L157.33 158.87L158.24 159.79L159.12 160.79L159.97 161.84L160.78 162.97L161.57 164.16L162.31 165.43L163 166.77L163.65 168.19L164.25 169.69L164.79 171.27L165.27 172.94L165.71 174.6L166.19 176.4L166.7 178.31L167.24 180.34L167.81 182.48L168.4 184.71L169.02 187.03L169.67 189.43L170.33 191.9L171 194.42L171.69 197L172.4 199.62L173.11 202.27L173.83 204.94L174.55 207.63L175.28 210.32L176 213.02L176.72 215.69L177.44 218.35L178.15 220.97L178.85 223.56L179.53 226.1L180.2 228.57L180.85 230.99L181.48 233.32L182.09 235.57L182.67 237.73L183.23 239.78L183.75 241.72L184.24 243.54L184.7 245.23L185.12 246.78L185.5 248.18L185.83 249.43L186.13 250.5L186.37 251.41L186.56 252.12L186.71 252.65L186.79 252.97L186.82 253.08L191.13 253.08L191.19 252.85L191.31 252.43L191.47 251.81L191.69 251.01L191.95 250.04L192.26 248.89L192.62 247.59L193.01 246.14L193.44 244.55L193.9 242.83L194.4 240.99L194.93 239.03L195.49 236.96L196.07 234.8L196.68 232.55L197.31 230.22L197.96 227.82L198.62 225.35L199.3 222.84L199.99 220.27L200.69 217.68L201.4 215.05L202.12 212.41L202.83 209.75L203.55 207.1L204.26 204.45L204.97 201.82L205.67 199.21L206.36 196.64L207.04 194.1L207.71 191.62L208.36 189.2L208.99 186.85L209.6 184.57L210.18 182.38L210.75 180.28L211.28 178.29L211.78 176.41L212.25 174.65L212.68 173.01L213.16 171.35L213.71 169.77L214.3 168.27L214.95 166.85L215.65 165.51L216.38 164.24L217.16 163.04L217.98 161.92L218.83 160.86L219.71 159.87L220.61 158.94L221.53 158.08L222.48 157.28L223.44 156.53L224.41 155.84L225.38 155.2L226.36 154.61L227.34 154.08L228.32 153.59L229.28 153.14L230.24 152.74L231.18 152.38L232.11 152.05L233.01 151.76L233.88 151.51L234.73 151.29L235.54 151.1L236.32 150.93L237.05 150.79L237.74 150.68L238.39 150.58L238.98 150.51L239.51 150.45L239.99 150.41L240.41 150.38L240.75 150.35L241.03 150.34L241.24 150.34L241.37 150.33L241.41 150.33L241.41 150.26L293.13 150.26L293.13 323.39L241.41 323.39L241.41 220.64L237.1 220.64L206.93 323.39L171.02 323.39L140.85 220.57L136.54 220.57L136.54 323.39L84.82 323.39L84.82 150.26L136.54 150.26L136.58 150.26L136.71 150.26ZM371.43 253.08L408.06 168.4L408.42 167.58L408.79 166.77L409.17 165.98L409.57 165.21L409.97 164.46L410.38 163.73L410.8 163.02L411.23 162.33L411.67 161.66L412.12 161L412.58 160.37L413.05 159.75L413.54 159.16L414.03 158.58L414.53 158.02L415.04 157.48L415.56 156.96L416.09 156.46L416.63 155.98L417.19 155.51L417.75 155.07L418.32 154.64L418.9 154.24L419.49 153.85L420.09 153.48L420.71 153.13L421.33 152.81L421.96 152.49L422.6 152.2L423.26 151.93L423.92 151.68L424.59 151.44L425.27 151.23L425.96 151.03L426.67 150.86L427.38 150.7L428.1 150.56L428.84 150.44L429.58 150.34L430.33 150.26L479.18 150.26L479.18 323.39L427.46 323.39L427.46 220.57L423.15 220.57L387.23 305.24L386.68 306.46L386.1 307.62L385.49 308.73L384.86 309.79L384.2 310.8L383.52 311.75L382.83 312.66L382.11 313.52L381.38 314.33L380.64 315.09L379.89 315.82L379.13 316.5L378.37 317.13L377.6 317.73L376.83 318.29L376.07 318.81L375.31 319.3L374.55 319.75L373.81 320.17L373.07 320.55L372.35 320.9L371.64 321.23L370.96 321.52L370.29 321.79L369.64 322.03L369.02 322.25L368.43 322.44L367.87 322.61L367.33 322.76L366.84 322.89L366.38 323L365.95 323.1L365.57 323.17L365.23 323.24L364.94 323.29L364.7 323.33L364.5 323.35L364.36 323.37L364.28 323.38L364.25 323.39L315.4 323.39L315.4 150.26L367.12 150.26L367.12 253.08L371.43 253.08ZM614.51 150.45L616.77 150.7L619 151.03L621.21 151.46L623.38 151.97L625.52 152.57L627.62 153.26L629.69 154.04L631.72 154.89L633.72 155.82L635.66 156.84L637.57 157.93L639.43 159.09L641.24 160.33L643.01 161.63L644.72 163.01L646.38 164.45L647.98 165.95L649.53 167.52L651.02 169.15L652.46 170.84L653.83 172.59L655.13 174.39L656.37 176.25L657.55 178.16L658.65 180.12L659.69 182.12L660.65 184.17L661.54 186.27L662.35 188.4L663.08 190.58L663.74 192.8L664.31 195.05L664.8 197.34L665.21 199.66L665.52 202.01L665.75 204.39L665.89 206.8L665.94 209.23L665.94 209.54L665.94 209.85L665.93 210.16L665.93 210.47L665.92 210.78L665.91 211.09L665.9 211.4L665.89 211.7L665.88 212.01L665.87 212.32L665.86 212.63L665.84 212.93L665.82 213.24L665.8 213.54L665.78 213.85L665.76 214.15L665.74 214.45L665.71 214.76L665.69 215.06L665.66 215.36L665.63 215.66L665.6 215.96L665.57 216.26L665.53 216.57L665.5 216.87L665.46 217.16L665.43 217.46L665.39 217.76L665.34 218.06L665.3 218.36L665.26 218.66L665.21 218.96L665.16 219.25L665.12 219.55L665.06 219.85L665.01 220.14L664.96 220.44L664.9 220.73L664.85 221.03L664.79 221.32L576.15 221.32L575.59 221.32L575.03 221.32L574.47 221.31L573.91 221.29L573.36 221.27L572.8 221.25L572.25 221.23L571.69 221.2L571.14 221.16L570.59 221.13L570.04 221.09L569.49 221.04L568.94 220.99L568.39 220.94L567.84 220.89L567.3 220.83L566.75 220.76L566.21 220.69L565.66 220.62L565.12 220.55L564.58 220.47L564.04 220.39L563.5 220.3L562.97 220.21L562.43 220.12L561.89 220.02L561.36 219.92L560.83 219.82L560.29 219.71L559.76 219.6L559.23 219.49L558.71 219.37L558.18 219.25L557.65 219.12L557.13 218.99L556.61 218.86L556.08 218.73L555.56 218.59L555.05 218.45L554.53 218.3L552.26 217.62L550.02 216.87L547.81 216.06L545.63 215.19L543.48 214.25L541.36 213.26L539.27 212.2L537.21 211.08L535.19 209.9L533.2 208.67L531.25 207.38L529.34 206.03L527.46 204.63L525.62 203.18L523.83 201.67L522.07 200.12L520.36 198.51L518.69 196.86L517.06 195.16L515.48 193.41L513.94 191.61L512.46 189.77L511.02 187.89L509.63 185.97L508.29 184L507 181.99L505.76 179.95L504.58 177.86L503.45 175.74L502.37 173.58L501.36 171.39L500.4 169.16L499.5 166.91L498.65 164.61L497.87 162.29L497.15 159.94L496.5 157.56L495.9 155.15L495.37 152.72L494.91 150.26L609.91 150.26L612.22 150.31L614.51 150.45Z" id="a4eGSruD6r"></path><path d="M496.19 323.39L550.88 323.39L550.88 271.66C586.42 271.66 606.17 271.66 610.12 271.66C635.94 271.66 657.81 256.29 665.94 234.82C654.62 234.82 598.04 234.82 496.19 234.82L496.19 323.39Z" id="b2W0bqG2pS"></path><path d="M493.59 150.26C499.44 184.89 523.37 212.7 554.33 221.75C554.33 221.75 554.33 221.75 554.33 221.75C561.35 223.82 568.74 224.93 576.35 224.93C585.38 224.93 657.62 224.93 666.65 224.93C667.46 220.8 667.82 216.59 667.82 212.22C667.82 177.98 642.28 150.26 610.75 150.26C587.31 150.26 505.3 150.26 493.59 150.26Z" id="b58Qnmuz9x"></path><linearGradient id="gradienta8HyOF595" gradientUnits="userSpaceOnUse" x1="493.6" y1="187.59" x2="667.82" y2="187.59"><stop style="stop-color: #00b4e6;stop-opacity: 1" offset="30%"></stop><stop style="stop-color: #088ccb;stop-opacity: 1" offset="100%"></stop></linearGradient></defs><g><g><g><use xlink:href="#ao3tqdAPq" opacity="1" fill="#d2e4e8" fill-opacity="1"></use><g><use xlink:href="#ao3tqdAPq" opacity="1" fill-opacity="0" stroke="#000000" stroke-width="1" stroke-opacity="0"></use></g></g><g><use xlink:href="#a4eGSruD6r" opacity="1" fill="#4db45e" fill-opacity="1"></use><g><use xlink:href="#a4eGSruD6r" opacity="1" fill-opacity="0" stroke="#000000" stroke-width="1" stroke-opacity="0"></use></g></g><g><use xlink:href="#b2W0bqG2pS" opacity="1" fill="#4db45e" fill-opacity="1"></use><g><use xlink:href="#b2W0bqG2pS" opacity="1" fill-opacity="0" stroke="#000000" stroke-width="1" stroke-opacity="0"></use></g></g><g><use xlink:href="#b58Qnmuz9x" opacity="1" fill="url(#gradienta8HyOF595)"></use><g><use xlink:href="#b58Qnmuz9x" opacity="1" fill-opacity="0" stroke="#000000" stroke-width="1" stroke-opacity="0"></use></g></g></g></g></svg>