<svg xmlns="http://www.w3.org/2000/svg" xmlns:xlink="http://www.w3.org/1999/xlink" viewBox="0 0 750 473" width="749" height="472.37"><defs><path d="M-.02 51.7v367.57c0 28.57 23.67 51.72 52.88 51.72h644.25c29.19 0 52.87-23.16 52.87-51.72V51.7c0-28.57-23.67-51.71-52.87-51.71H52.86C17.61 15.42-.02 32.66-.02 51.7Z" id="a"/><path d="m136.71 150.26.2.01.27.01.35.02.41.03.47.04.54.06.59.08.64.09.69.12.74.14.77.16.81.19.85.22.88.26.9.29.92.32.95.36.95.41.97.44.98.49.98.54.98.58.98.64.97.69.96.75.95.8.92.87.91.92.88 1 .85 1.05.81 1.13.79 1.19.74 1.27.69 1.34.65 1.42.6 1.5.54 1.58.48 1.67.44 1.66.48 1.8.51 1.91.54 2.03.57 2.14.59 2.23.62 2.32.65 2.4.66 2.47.67 2.52.69 2.58.71 2.62.71 2.65.72 2.67.72 2.69.73 2.69.72 2.7.72 2.67.72 2.66.71 2.62.7 2.59.68 2.54.67 2.47.65 2.42.63 2.33.61 2.25.58 2.16.56 2.05.52 1.94.49 1.82.46 1.69.42 1.55.38 1.4.33 1.25.3 1.07.24.91.19.71.15.53.08.32.03.11h4.31l.06-.23.12-.42.16-.62.22-.8.26-.97.31-1.15.36-1.3.39-1.45.43-1.59.46-1.72.5-1.84.53-1.96.56-2.07.58-2.16.61-2.25.63-2.33.65-2.4.66-2.47.68-2.51.69-2.57.7-2.59.71-2.63.72-2.64.71-2.66.72-2.65.71-2.65.71-2.63.7-2.61.69-2.57.68-2.54.67-2.48.65-2.42.63-2.35.61-2.28.58-2.19.57-2.1.53-1.99.5-1.88.47-1.76.43-1.64.48-1.66.55-1.58.59-1.5.65-1.42.7-1.34.73-1.27.78-1.2.82-1.12.85-1.06.88-.99.9-.93.92-.86.95-.8.96-.75.97-.69.97-.64.98-.59.98-.53.98-.49.96-.45.96-.4.94-.36.93-.33.9-.29.87-.25.85-.22.81-.19.78-.17.73-.14.69-.11.65-.1.59-.07.53-.06.48-.04.42-.03.34-.03.28-.01h.21l.13-.01h.04v-.07h51.72v173.13h-51.72V220.64h-4.31l-30.17 102.75h-35.91l-30.17-102.82h-4.31v102.82H84.82V150.26h51.89Zm234.72 102.82 36.63-84.68.36-.82.37-.81.38-.79.4-.77.4-.75.41-.73.42-.71.43-.69.44-.67.45-.66.46-.63.47-.62.49-.59.49-.58.5-.56.51-.54.52-.52.53-.5.54-.48.56-.47.56-.44.57-.43.58-.4.59-.39.6-.37.62-.35.62-.32.63-.32.64-.29.66-.27.66-.25.67-.24.68-.21.69-.2.71-.17.71-.16.72-.14.74-.12.74-.1.75-.08h48.85v173.13h-51.72V220.57h-4.31l-35.92 84.67-.55 1.22-.58 1.16-.61 1.11-.63 1.06-.66 1.01-.68.95-.69.91-.72.86-.73.81-.74.76-.75.73-.76.68-.76.63-.77.6-.77.56-.76.52-.76.49-.76.45-.74.42-.74.38-.72.35-.71.33-.68.29-.67.27-.65.24-.62.22-.59.19-.56.17-.54.15-.49.13-.46.11-.43.1-.38.07-.34.07-.29.05-.24.04-.2.02-.14.02-.08.01-.03.01H315.4V150.26h51.72v102.82h4.31Zm243.08-102.63 2.26.25 2.23.33 2.21.43 2.17.51 2.14.6 2.1.69 2.07.78 2.03.85 2 .93 1.94 1.02 1.91 1.09 1.86 1.16 1.81 1.24 1.77 1.3 1.71 1.38 1.66 1.44 1.6 1.5 1.55 1.57 1.49 1.63 1.44 1.69 1.37 1.75 1.3 1.8 1.24 1.86 1.18 1.91 1.1 1.96 1.04 2 .96 2.05.89 2.1.81 2.13.73 2.18.66 2.22.57 2.25.49 2.29.41 2.32.31 2.35.23 2.38.14 2.41.05 2.43v.62l-.01.31v.31l-.01.31-.01.31-.01.31-.01.3-.01.31-.01.31-.01.31-.02.3-.02.31-.02.3-.02.31-.02.3-.02.3-.03.31-.02.3-.03.3-.03.3-.03.3-.03.3-.04.31-.03.3-.04.29-.03.3-.04.3-.05.3-.04.3-.04.3-.05.3-.05.29-.04.3-.06.3-.05.29-.05.3-.06.29-.05.3-.06.29h-89.76l-.56-.01-.56-.02-.55-.02-.56-.02-.55-.02-.56-.03-.55-.04-.55-.03-.55-.04-.55-.05-.55-.05-.55-.05-.55-.05-.54-.06-.55-.07-.54-.07-.55-.07-.54-.07-.54-.08-.54-.08-.54-.09-.53-.09-.54-.09-.54-.1-.53-.1-.53-.1-.54-.11-.53-.11-.53-.11-.52-.12-.53-.12-.53-.13-.52-.13-.52-.13-.53-.13-.52-.14-.51-.14-.52-.15-2.27-.68-2.24-.75-2.21-.81-2.18-.87-2.15-.94-2.12-.99-2.09-1.06-2.06-1.12-2.02-1.18-1.99-1.23-1.95-1.29-1.91-1.35-1.88-1.4-1.84-1.45-1.79-1.51-1.76-1.55-1.71-1.61-1.67-1.65-1.63-1.7-1.58-1.75-1.54-1.8-1.48-1.84-1.44-1.88-1.39-1.92-1.34-1.97-1.29-2.01-1.24-2.04-1.18-2.09-1.13-2.12-1.08-2.16-1.01-2.19-.96-2.23-.9-2.25-.85-2.3-.78-2.32-.72-2.35-.65-2.38-.6-2.41-.53-2.43-.46-2.46h115l2.31.05 2.29.14Z" id="b"/><path d="M496.19 323.39h54.69v-51.73h59.24c25.82 0 47.69-15.37 55.82-36.84H496.19v88.57Z" id="c"/><path d="M493.59 150.26c5.85 34.63 29.78 62.44 60.74 71.49a77.745 77.745 0 0 0 22.02 3.18h90.3c.81-4.13 1.17-8.34 1.17-12.71 0-34.24-25.54-61.96-57.07-61.96H493.59Z" id="d"/><linearGradient id="e" gradientUnits="userSpaceOnUse" x1="493.6" y1="187.59" x2="667.82" y2="187.59"><stop style="stop-color:#00b4e6;stop-opacity:1" offset="30%"/><stop style="stop-color:#088ccb;stop-opacity:1" offset="100%"/></linearGradient></defs><use xlink:href="#a" fill="#d2e4e8"/><use xlink:href="#a" fill-opacity="0" stroke="#000" stroke-opacity="0"/><use xlink:href="#b" fill="#4db45e"/><use xlink:href="#b" fill-opacity="0" stroke="#000" stroke-opacity="0"/><use xlink:href="#c" fill="#4db45e"/><use xlink:href="#c" fill-opacity="0" stroke="#000" stroke-opacity="0"/><use xlink:href="#d" fill="url(#e)"/><use xlink:href="#d" fill-opacity="0" stroke="#000" stroke-opacity="0"/></svg>